{"title":"Sofia Gucci - Dirty Dance (2006, DVD.xvid) - anal","uid":4752271,"size":1015572876,"categoryP":"porn","categoryS":"movies","magnet":"?xt=urn:btih:0840d684c7611cbc745b8726ae4a7c07253e9dbb&amp;dn=Sofia+Gucci+-+Dirty+Dance+%282006%2C+DVD.xvid%29+-+anal&amp;tr=udp%3A%2F%2Ftracker.openbittorrent.com%3A80&amp;tr=udp%3A%2F%2Fopen.demonii.com%3A1337&amp;tr=udp%3A%2F%2Ftracker.coppersurfer.tk%3A6969&amp;tr=udp%3A%2F%2Fexodus.desync.com%3A6969","seeders":1,"leechers":4,"uploader":"pure_screens","files":1,"time":1236258636,"description":"Sofia Gucci - Dirty Dance (2006, DVD.xvid)\n\n\n\n\n\nscreens (DVD-covers):\n &lt;a href=&quot;\nhttp://wide.blogbugs.org/7579429/Dirty-Dance---screens.html&quot; rel=&quot;nofollow&quot; target=&quot;_NEW&quot;&gt;\nhttp://wide.blogbugs.org/7579429/Dirty-Dance---screens.html&lt;/a&gt;\n\n\n\n\n\nIf you saw the movie then you know what dancing makes you want to do. These couples are no different, dancing is for play and they want to fuck. The image of two hot bodies rubbing together in rhythm is enough to drive you insane, now see what happens when they take it to the next level.\n\n\nActresses\n\n    * Angela Winter                  [NonSex]\n    * Cony Ferrara (as Aniko)        [NonSex]\n    * Afrodite (as Aphrodite)        [NonSex]\n    * Lisa Rose (as Brigitta)        [Anal Facial]\n    * Mandy Bright (as Mandy Bryght) [Anal Facial]\n    * Monika Unco                    [Anal Facial]\n    * Sofia Gucci                    [Anal Facial]\n\n \n   \nScene Breakdowns\n\n    * Scene 1. Kevin King, Sofia Gucci\n    * Scene 2. Kevin King, Monika Unco\n    * Scene 3. Lisa Rose, Zenza Raggi\n    * Scene 4. Leslie Taylor, Mandy Bright\n    * Scene 5. Bruno SX, Sofia Gucci\n\n\n\nDistributor      F.M. Video\nReleased:        2006\nDirector:        Renzo Reggi\n\n\n\n\nGeneral\nComplete name                    : E:Dirty Dance.avi\nFormat                           : AVI\nFormat/Info                      : Audio Video Interleave\nFile size                        : 969 MiB\nDuration                         : 1h 51mn\nOverall bit rate                 : 1 214 Kbps\nWriting application              : VirtualDubMod 1.5.10.1 (build 2439/release)\nWriting library                  : VirtualDub build 28292/release\n\nVideo\nFormat                           : MPEG-4 Visual\nFormat settings, BVOP            : Yes\nFormat settings, QPel            : No\nFormat settings, GMC             : No warppoints\nFormat settings, Matrix          : Default\nCodec ID                         : DX50\nCodec ID/Hint                    : DivX 5\nDuration                         : 1h 51mn\nBit rate                         : 1 149 Kbps\nWidth                            : 640 pixels\nHeight                           : 352 pixels\nDisplay aspect ratio             : 1.983\nFrame rate                       : 25.000 fps\nResolution                       : 24 bits\nColorimetry                      : 4:2:0\nScan type                        : Progressive\nBits/(Pixel*Frame)               : 0.204\nStream size                      : 916 MiB (95%)\nWriting library                  : DivX 6.7.0 (UTC 2007-09-20)\n\nAudio\nFormat                           : MPEG Audio\nFormat version                   : Version 2\nFormat profile                   : Layer 3\nCodec ID                         : 55\nCodec ID/Hint                    : MP3\nDuration                         : 1h 51mn\nBit rate mode                    : Constant\nBit rate                         : 56.0 Kbps\nChannel(s)                       : 2 channels\nSampling rate                    : 24.0 KHz\nResolution                       : 16 bits\nStream size                      : 44.7 MiB (5%)\nAlignment                        : Split accross interleaves\nInterleave, duration             : 40 ms (1.00 video frame)\nInterleave, preload duration     : 500 ms\n\n\n\n\n\n","torrent":{"xt":"urn:btih:0840d684c7611cbc745b8726ae4a7c07253e9dbb","amp;dn":"Sofia+Gucci+-+Dirty+Dance+%282006%2C+DVD.xvid%29+-+anal","amp;tr":["udp%3A%2F%2Ftracker.openbittorrent.com%3A80","udp%3A%2F%2Fopen.demonii.com%3A1337","udp%3A%2F%2Ftracker.coppersurfer.tk%3A6969","udp%3A%2F%2Fexodus.desync.com%3A6969"],"infoHash":"0840d684c7611cbc745b8726ae4a7c07253e9dbb","infoHashBuffer":{"type":"Buffer","data":[8,64,214,132,199,97,28,188,116,91,135,38,174,74,124,7,37,62,157,187]},"announce":[],"urlList":[]}}